<svg xmlns="http://www.w3.org/2000/svg" width="320" height="143" viewBox="0 0 320 143" fill="none">
    <mask id="path-1-outside-1_14_15" maskUnits="userSpaceOnUse" x="0" y="0" width="320" height="143" fill="black">
        <rect fill="white" width="320" height="143"/>
        <path fill-rule="evenodd" clip-rule="evenodd" d="M318.416 1H1.41566V90.75H1L1.41566 90.8814V91H1.79063L159.916 141L318.041 91H318.416V90.8814L318.831 90.75H318.416V1Z"/>
    </mask>
    <path fill-rule="evenodd" clip-rule="evenodd" d="M318.416 1H1.41566V90.75H1L1.41566 90.8814V91H1.79063L159.916 141L318.041 91H318.416V90.8814L318.831 90.75H318.416V1Z" fill="#EAECF0"/>
    <path d="M1.41566 1V0.5H0.915665V1H1.41566ZM318.416 1H318.916V0.5H318.416V1ZM1.41566 90.75V91.25H1.91566V90.75H1.41566ZM1 90.75V90.25L0.84925 91.2267L1 90.75ZM1.41566 90.8814H1.91566V90.5151L1.56641 90.4047L1.41566 90.8814ZM1.41566 91H0.915665V91.5H1.41566V91ZM1.79063 91L1.94137 90.5233L1.86779 90.5H1.79063V91ZM159.916 141L159.765 141.477L159.916 141.524L160.066 141.477L159.916 141ZM318.041 91V90.5H317.964L317.89 90.5233L318.041 91ZM318.416 91V91.5H318.916V91H318.416ZM318.416 90.8814L318.265 90.4047L317.916 90.5151V90.8814H318.416ZM318.831 90.75L318.982 91.2267L318.831 90.25V90.75ZM318.416 90.75H317.916V91.25H318.416V90.75ZM0.915665 1V2.01989H1.91566V1H0.915665ZM0.915665 4.05966V6.09943H1.91566V4.05966H0.915665ZM0.915665 8.1392V10.179H1.91566V8.1392H0.915665ZM0.915665 12.2188V14.2585H1.91566V12.2188H0.915665ZM0.915665 16.2983V18.3381H1.91566V16.2983H0.915665ZM0.915665 20.3778V22.4176H1.91566V20.3778H0.915665ZM0.915665 24.4574V26.4972H1.91566V24.4574H0.915665ZM0.915665 28.5369V30.5767H1.91566V28.5369H0.915665ZM0.915665 32.6165V34.6562H1.91566V32.6165H0.915665ZM0.915665 36.696V38.7358H1.91566V36.696H0.915665ZM0.915665 40.7756V42.8153H1.91566V40.7756H0.915665ZM0.915665 44.8551V46.8949H1.91566V44.8551H0.915665ZM0.915665 48.9347V50.9744H1.91566V48.9347H0.915665ZM0.915665 53.0142V55.054H1.91566V53.0142H0.915665ZM0.915665 57.0937V59.1335H1.91566V57.0937H0.915665ZM0.915665 61.1733V63.2131H1.91566V61.1733H0.915665ZM0.915665 65.2528V67.2926H1.91566V65.2528H0.915665ZM0.915665 69.3324V71.3721H1.91566V69.3324H0.915665ZM0.915665 73.4119V75.4517H1.91566V73.4119H0.915665ZM0.915665 77.4915V79.5312H1.91566V77.4915H0.915665ZM0.915665 81.571V83.6108H1.91566V81.571H0.915665ZM0.915665 85.6506V87.6903H1.91566V85.6506H0.915665ZM0.915665 89.7301V90.75H1.91566V89.7301H0.915665ZM1.41566 90.25H1.31175V91.25H1.41566V90.25ZM1.10392 90.25H1V91.25H1.10392V90.25ZM0.84925 91.2267L0.953166 91.2596L1.25467 90.3061L1.15075 90.2733L0.84925 91.2267ZM1.161 91.3253L1.26491 91.3582L1.56641 90.4047L1.4625 90.3718L1.161 91.3253ZM0.915665 90.8814V90.9111H1.91566V90.8814H0.915665ZM0.915665 90.9704V91H1.91566V90.9704H0.915665ZM1.41566 91.5H1.5094V90.5H1.41566V91.5ZM1.69689 91.5H1.79063V90.5H1.69689V91.5ZM1.63988 91.4767L2.60406 91.7816L2.90555 90.8281L1.94137 90.5233L1.63988 91.4767ZM4.53241 92.3914L6.46076 93.0011L6.76226 92.0477L4.8339 91.4379L4.53241 92.3914ZM8.38912 93.6109L10.3175 94.2206L10.619 93.2672L8.69061 92.6574L8.38912 93.6109ZM12.2458 94.8304L14.1742 95.4401L14.4757 94.4867L12.5473 93.8769L12.2458 94.8304ZM16.1025 96.0499L18.0309 96.6597L18.3324 95.7062L16.404 95.0964L16.1025 96.0499ZM19.9592 97.2694L21.8876 97.8792L22.1891 96.9257L20.2607 96.3159L19.9592 97.2694ZM23.816 98.4889L25.7443 99.0987L26.0458 98.1452L24.1174 97.5355L23.816 98.4889ZM27.6727 99.7084L29.601 100.318L29.9025 99.3647L27.9741 98.755L27.6727 99.7084ZM31.5294 100.928L33.4577 101.538L33.7592 100.584L31.8309 99.9745L31.5294 100.928ZM35.3861 102.147L37.3144 102.757L37.6159 101.804L35.6876 101.194L35.3861 102.147ZM39.2428 103.367L41.1711 103.977L41.4726 103.023L39.5443 102.414L39.2428 103.367ZM43.0995 104.586L45.0278 105.196L45.3293 104.243L43.401 103.633L43.0995 104.586ZM46.9562 105.806L48.8845 106.416L49.186 105.462L47.2577 104.853L46.9562 105.806ZM50.8129 107.026L52.7412 107.635L53.0427 106.682L51.1144 106.072L50.8129 107.026ZM54.6696 108.245L56.598 108.855L56.8994 107.901L54.9711 107.292L54.6696 108.245ZM58.5263 109.465L60.4547 110.074L60.7562 109.121L58.8278 108.511L58.5263 109.465ZM62.383 110.684L64.3114 111.294L64.6129 110.34L62.6845 109.731L62.383 110.684ZM66.2397 111.904L68.1681 112.513L68.4696 111.56L66.5412 110.95L66.2397 111.904ZM70.0964 113.123L72.0248 113.733L72.3263 112.779L70.3979 112.17L70.0964 113.123ZM73.9531 114.343L75.8815 114.952L76.183 113.999L74.2546 113.389L73.9531 114.343ZM77.8098 115.562L79.7382 116.172L80.0397 115.218L78.1113 114.609L77.8098 115.562ZM81.6665 116.782L83.5949 117.391L83.8964 116.438L81.968 115.828L81.6665 116.782ZM85.5233 118.001L87.4516 118.611L87.7531 117.657L85.8247 117.048L85.5233 118.001ZM89.38 119.221L91.3083 119.83L91.6098 118.877L89.6814 118.267L89.38 119.221ZM93.2367 120.44L95.165 121.05L95.4665 120.096L93.5382 119.487L93.2367 120.44ZM97.0934 121.66L99.0217 122.269L99.3232 121.316L97.3949 120.706L97.0934 121.66ZM100.95 122.879L102.878 123.489L103.18 122.535L101.252 121.926L100.95 122.879ZM104.807 124.099L106.735 124.708L107.037 123.755L105.108 123.145L104.807 124.099ZM108.663 125.318L110.592 125.928L110.893 124.974L108.965 124.365L108.663 125.318ZM112.52 126.538L114.449 127.147L114.75 126.194L112.822 125.584L112.52 126.538ZM116.377 127.757L118.305 128.367L118.607 127.413L116.678 126.804L116.377 127.757ZM120.234 128.977L122.162 129.586L122.463 128.633L120.535 128.023L120.234 128.977ZM124.09 130.196L126.019 130.806L126.32 129.853L124.392 129.243L124.09 130.196ZM127.947 131.416L129.875 132.025L130.177 131.072L128.249 130.462L127.947 131.416ZM131.804 132.635L133.732 133.245L134.034 132.292L132.105 131.682L131.804 132.635ZM135.66 133.855L137.589 134.465L137.89 133.511L135.962 132.901L135.66 133.855ZM139.517 135.074L141.446 135.684L141.747 134.731L139.819 134.121L139.517 135.074ZM143.374 136.294L145.302 136.904L145.604 135.95L143.675 135.34L143.374 136.294ZM147.231 137.513L149.159 138.123L149.46 137.17L147.532 136.56L147.231 137.513ZM151.087 138.733L153.016 139.343L153.317 138.389L151.389 137.779L151.087 138.733ZM154.944 139.952L156.872 140.562L157.174 139.609L155.245 138.999L154.944 139.952ZM158.801 141.172L159.765 141.477L160.066 140.523L159.102 140.218L158.801 141.172ZM160.066 141.477L161.031 141.172L160.729 140.218L159.765 140.523L160.066 141.477ZM162.959 140.562L164.887 139.952L164.586 138.999L162.657 139.609L162.959 140.562ZM166.816 139.343L168.744 138.733L168.443 137.779L166.514 138.389L166.816 139.343ZM170.672 138.123L172.601 137.513L172.299 136.56L170.371 137.17L170.672 138.123ZM174.529 136.904L176.457 136.294L176.156 135.34L174.228 135.95L174.529 136.904ZM178.386 135.684L180.314 135.074L180.013 134.121L178.084 134.731L178.386 135.684ZM182.242 134.465L184.171 133.855L183.869 132.901L181.941 133.511L182.242 134.465ZM186.099 133.245L188.028 132.635L187.726 131.682L185.798 132.292L186.099 133.245ZM189.956 132.026L191.884 131.416L191.583 130.462L189.654 131.072L189.956 132.026ZM193.813 130.806L195.741 130.196L195.439 129.243L193.511 129.853L193.813 130.806ZM197.669 129.586L199.598 128.977L199.296 128.023L197.368 128.633L197.669 129.586ZM201.526 128.367L203.454 127.757L203.153 126.804L201.225 127.414L201.526 128.367ZM205.383 127.147L207.311 126.538L207.01 125.584L205.081 126.194L205.383 127.147ZM209.239 125.928L211.168 125.318L210.866 124.365L208.938 124.974L209.239 125.928ZM213.096 124.708L215.024 124.099L214.723 123.145L212.795 123.755L213.096 124.708ZM216.953 123.489L218.881 122.879L218.58 121.926L216.651 122.535L216.953 123.489ZM220.81 122.269L222.738 121.66L222.436 120.706L220.508 121.316L220.81 122.269ZM224.666 121.05L226.595 120.44L226.293 119.487L224.365 120.096L224.666 121.05ZM228.523 119.83L230.451 119.221L230.15 118.267L228.221 118.877L228.523 119.83ZM232.38 118.611L234.308 118.001L234.007 117.048L232.078 117.657L232.38 118.611ZM236.236 117.391L238.165 116.782L237.863 115.828L235.935 116.438L236.236 117.391ZM240.093 116.172L242.021 115.562L241.72 114.609L239.792 115.218L240.093 116.172ZM243.95 114.952L245.878 114.343L245.577 113.389L243.648 113.999L243.95 114.952ZM247.806 113.733L249.735 113.123L249.433 112.17L247.505 112.779L247.806 113.733ZM251.663 112.513L253.592 111.904L253.29 110.95L251.362 111.56L251.663 112.513ZM255.52 111.294L257.448 110.684L257.147 109.731L255.218 110.34L255.52 111.294ZM259.377 110.074L261.305 109.465L261.003 108.511L259.075 109.121L259.377 110.074ZM263.233 108.855L265.162 108.245L264.86 107.292L262.932 107.901L263.233 108.855ZM267.09 107.635L269.018 107.026L268.717 106.072L266.789 106.682L267.09 107.635ZM270.947 106.416L272.875 105.806L272.574 104.853L270.645 105.462L270.947 106.416ZM274.803 105.196L276.732 104.587L276.43 103.633L274.502 104.243L274.803 105.196ZM278.66 103.977L280.589 103.367L280.287 102.414L278.359 103.023L278.66 103.977ZM282.517 102.757L284.445 102.147L284.144 101.194L282.215 101.804L282.517 102.757ZM286.374 101.538L288.302 100.928L288 99.9745L286.072 100.584L286.374 101.538ZM290.23 100.318L292.159 99.7085L291.857 98.755L289.929 99.3647L290.23 100.318ZM294.087 99.0987L296.015 98.4889L295.714 97.5355L293.785 98.1452L294.087 99.0987ZM297.944 97.8792L299.872 97.2694L299.571 96.316L297.642 96.9257L297.944 97.8792ZM301.8 96.6597L303.729 96.0499L303.427 95.0965L301.499 95.7062L301.8 96.6597ZM305.657 95.4402L307.585 94.8304L307.284 93.8769L305.356 94.4867L305.657 95.4402ZM309.514 94.2206L311.442 93.6109L311.141 92.6574L309.212 93.2672L309.514 94.2206ZM313.371 93.0011L315.299 92.3914L314.997 91.4379L313.069 92.0477L313.371 93.0011ZM317.227 91.7816L318.191 91.4767L317.89 90.5233L316.926 90.8282L317.227 91.7816ZM318.041 91.5H318.134V90.5H318.041V91.5ZM318.322 91.5H318.416V90.5H318.322V91.5ZM318.916 91V90.9704H317.916V91H318.916ZM318.916 90.9111V90.8814H317.916V90.9111H318.916ZM318.566 91.3582L318.67 91.3253L318.369 90.3718L318.265 90.4047L318.566 91.3582ZM318.878 91.2596L318.982 91.2267L318.681 90.2733L318.577 90.3061L318.878 91.2596ZM318.831 90.25H318.727V91.25H318.831V90.25ZM318.52 90.25H318.416V91.25H318.52V90.25ZM318.916 90.75V89.7301H317.916V90.75H318.916ZM318.916 87.6903V85.6506H317.916V87.6903H318.916ZM318.916 83.6108V81.571H317.916V83.6108H318.916ZM318.916 79.5312V77.4915H317.916V79.5312H318.916ZM318.916 75.4517V73.4119H317.916V75.4517H318.916ZM318.916 71.3722V69.3324H317.916V71.3722H318.916ZM318.916 67.2926V65.2528H317.916V67.2926H318.916ZM318.916 63.2131V61.1733H317.916V63.2131H318.916ZM318.916 59.1335V57.0938H317.916V59.1335H318.916ZM318.916 55.054V53.0142H317.916V55.054H318.916ZM318.916 50.9744V48.9347H317.916V50.9744H318.916ZM318.916 46.8949V44.8551H317.916V46.8949H318.916ZM318.916 42.8153V40.7756H317.916V42.8153H318.916ZM318.916 38.7358V36.696H317.916V38.7358H318.916ZM318.916 34.6563V32.6165H317.916V34.6563H318.916ZM318.916 30.5767V28.5369H317.916V30.5767H318.916ZM318.916 26.4972V24.4574H317.916V26.4972H318.916ZM318.916 22.4176V20.3779H317.916V22.4176H318.916ZM318.916 18.3381V16.2983H317.916V18.3381H318.916ZM318.916 14.2585V12.2188H317.916V14.2585H318.916ZM318.916 10.179V8.13922H317.916V10.179H318.916ZM318.916 6.09945V4.05968H317.916V6.09945H318.916ZM318.916 2.01991V1H317.916V2.01991H318.916ZM318.416 0.5H317.412V1.5H318.416V0.5ZM315.406 0.5H313.4V1.5H315.406V0.5ZM311.393 0.5H309.387V1.5H311.393V0.5ZM307.381 0.5H305.375V1.5H307.381V0.5ZM303.368 0.5H301.362V1.5H303.368V0.5ZM299.356 0.5H297.349V1.5H299.356V0.5ZM295.343 0.5H293.337V1.5H295.343V0.5ZM291.33 0.5H289.324V1.5H291.33V0.5ZM287.318 0.5H285.311V1.5H287.318V0.5ZM283.305 0.5H281.299V1.5H283.305V0.5ZM279.292 0.5H277.286V1.5H279.292V0.5ZM275.28 0.5H273.273V1.5H275.28V0.5ZM271.267 0.5H269.261V1.5H271.267V0.5ZM267.254 0.5H265.248V1.5H267.254V0.5ZM263.242 0.5H261.235V1.5H263.242V0.5ZM259.229 0.5H257.223V1.5H259.229V0.5ZM255.216 0.5H253.21V1.5H255.216V0.5ZM251.204 0.5H249.197V1.5H251.204V0.5ZM247.191 0.5H245.185V1.5H247.191V0.5ZM243.178 0.5H241.172V1.5H243.178V0.5ZM239.166 0.5H237.159V1.5H239.166V0.5ZM235.153 0.5H233.147V1.5H235.153V0.5ZM231.14 0.5H229.134V1.5H231.14V0.5ZM227.128 0.5H225.121V1.5H227.128V0.5ZM223.115 0.5H221.109V1.5H223.115V0.5ZM219.102 0.5H217.096V1.5H219.102V0.5ZM215.09 0.5H213.083V1.5H215.09V0.5ZM211.077 0.5H209.071V1.5H211.077V0.5ZM207.064 0.5H205.058V1.5H207.064V0.5ZM203.052 0.5H201.045V1.5H203.052V0.5ZM199.039 0.5H197.033V1.5H199.039V0.5ZM195.026 0.5H193.02V1.5H195.026V0.5ZM191.014 0.5H189.007V1.5H191.014V0.5ZM187.001 0.5H184.995V1.5H187.001V0.5ZM182.988 0.5H180.982V1.5H182.988V0.5ZM178.976 0.5H176.969V1.5H178.976V0.5ZM174.963 0.5H172.957V1.5H174.963V0.5ZM170.95 0.5H168.944V1.5H170.95V0.5ZM166.938 0.5H164.931V1.5H166.938V0.5ZM162.925 0.5H160.919V1.5H162.925V0.5ZM158.912 0.5H156.906V1.5H158.912V0.5ZM154.9 0.5H152.893V1.5H154.9V0.5ZM150.887 0.5H148.881V1.5H150.887V0.5ZM146.874 0.5H144.868V1.5H146.874V0.5ZM142.862 0.5H140.855V1.5H142.862V0.5ZM138.849 0.5H136.843V1.5H138.849V0.5ZM134.836 0.5H132.83V1.5H134.836V0.5ZM130.824 0.5H128.817V1.5H130.824V0.5ZM126.811 0.5H124.805V1.5H126.811V0.5ZM122.798 0.5H120.792V1.5H122.798V0.5ZM118.786 0.5H116.779V1.5H118.786V0.5ZM114.773 0.5H112.767V1.5H114.773V0.5ZM110.76 0.5H108.754V1.5H110.76V0.5ZM106.748 0.5H104.741V1.5H106.748V0.5ZM102.735 0.5H100.729V1.5H102.735V0.5ZM98.7224 0.5H96.7161V1.5H98.7224V0.5ZM94.7097 0.5H92.7034V1.5H94.7097V0.5ZM90.6971 0.5H88.6907V1.5H90.6971V0.5ZM86.6844 0.5H84.6781V1.5H86.6844V0.5ZM82.6717 0.5H80.6654V1.5H82.6717V0.5ZM78.6591 0.5H76.6527V1.5H78.6591V0.5ZM74.6464 0.5H72.6401V1.5H74.6464V0.5ZM70.6337 0.5H68.6274V1.5H70.6337V0.5ZM66.6211 0.5H64.6147V1.5H66.6211V0.5ZM62.6084 0.5H60.6021V1.5H62.6084V0.5ZM58.5958 0.5H56.5895V1.5H58.5958V0.5ZM54.5831 0.5H52.5768V1.5H54.5831V0.5ZM50.5705 0.5H48.5642V1.5H50.5705V0.5ZM46.5579 0.5H44.5516V1.5H46.5579V0.5ZM42.5452 0.5H40.5389V1.5H42.5452V0.5ZM38.5326 0.5H36.5263V1.5H38.5326V0.5ZM34.52 0.5H32.5136V1.5H34.52V0.5ZM30.5073 0.5H28.501V1.5H30.5073V0.5ZM26.4947 0.5H24.4884V1.5H26.4947V0.5ZM22.4821 0.5H20.4758V1.5H22.4821V0.5ZM18.4694 0.5H16.4631V1.5H18.4694V0.5ZM14.4568 0.5H12.4505V1.5H14.4568V0.5ZM10.4442 0.5H8.43785V1.5H10.4442V0.5ZM6.43154 0.5H4.42521V1.5H6.43154V0.5ZM2.4189 0.5H1.41566V1.5H2.4189V0.5ZM1.41566 1V0H0.415665V1H1.41566ZM318.416 1H319.416V0H318.416V1ZM1.41566 90.75V91.75H2.41566V90.75H1.41566ZM1 90.75V89.75L0.6985 91.7035L1 90.75ZM1.41566 90.8814H2.41566V90.1488L1.71716 89.928L1.41566 90.8814ZM1.41566 91H0.415665V92H1.41566V91ZM1.79063 91L2.09212 90.0465L1.94496 90H1.79063V91ZM159.916 141L159.614 141.953L159.916 142.049L160.217 141.953L159.916 141ZM318.041 91V90H317.886L317.739 90.0465L318.041 91ZM318.416 91V92H319.416V91H318.416ZM318.416 90.8814L318.114 89.928L317.416 90.1488V90.8814H318.416ZM318.831 90.75L319.133 91.7035L318.831 89.75V90.75ZM318.416 90.75H317.416V91.75H318.416V90.75ZM0.415665 1V2.01989H2.41566V1H0.415665ZM0.415665 4.05966V6.09943H2.41566V4.05966H0.415665ZM0.415665 8.1392V10.179H2.41566V8.1392H0.415665ZM0.415665 12.2188V14.2585H2.41566V12.2188H0.415665ZM0.415665 16.2983V18.3381H2.41566V16.2983H0.415665ZM0.415665 20.3778V22.4176H2.41566V20.3778H0.415665ZM0.415665 24.4574V26.4972H2.41566V24.4574H0.415665ZM0.415665 28.5369V30.5767H2.41566V28.5369H0.415665ZM0.415665 32.6165V34.6562H2.41566V32.6165H0.415665ZM0.415665 36.696V38.7358H2.41566V36.696H0.415665ZM0.415665 40.7756V42.8153H2.41566V40.7756H0.415665ZM0.415665 44.8551V46.8949H2.41566V44.8551H0.415665ZM0.415665 48.9347V50.9744H2.41566V48.9347H0.415665ZM0.415665 53.0142V55.054H2.41566V53.0142H0.415665ZM0.415665 57.0937V59.1335H2.41566V57.0937H0.415665ZM0.415665 61.1733V63.2131H2.41566V61.1733H0.415665ZM0.415665 65.2528V67.2926H2.41566V65.2528H0.415665ZM0.415665 69.3324V71.3721H2.41566V69.3324H0.415665ZM0.415665 73.4119V75.4517H2.41566V73.4119H0.415665ZM0.415665 77.4915V79.5312H2.41566V77.4915H0.415665ZM0.415665 81.571V83.6108H2.41566V81.571H0.415665ZM0.415665 85.6506V87.6903H2.41566V85.6506H0.415665ZM0.415665 89.7301V90.75H2.41566V89.7301H0.415665ZM1.41566 89.75H1.31175V91.75H1.41566V89.75ZM1.10392 89.75H1V91.75H1.10392V89.75ZM0.6985 91.7035L0.802416 91.7363L1.40542 89.8294L1.3015 89.7965L0.6985 91.7035ZM1.01025 91.802L1.11416 91.8349L1.71716 89.928L1.61325 89.8951L1.01025 91.802ZM0.415665 90.8814V90.9111H2.41566V90.8814H0.415665ZM0.415665 90.9704V91H2.41566V90.9704H0.415665ZM1.41566 92H1.5094V90H1.41566V92ZM1.69689 92H1.79063V90H1.69689V92ZM1.48913 91.9535L2.45331 92.2583L3.05629 90.3514L2.09212 90.0465L1.48913 91.9535ZM4.38166 92.8681L6.31002 93.4779L6.913 91.5709L4.98465 90.9612L4.38166 92.8681ZM8.23837 94.0876L10.1667 94.6974L10.7697 92.7904L8.84136 92.1807L8.23837 94.0876ZM12.0951 95.3071L14.0234 95.9169L14.6264 94.0099L12.6981 93.4002L12.0951 95.3071ZM15.9518 96.5266L17.8801 97.1364L18.4831 95.2295L16.5548 94.6197L15.9518 96.5266ZM19.8085 97.7462L21.7368 98.3559L22.3398 96.449L20.4115 95.8392L19.8085 97.7462ZM23.6652 98.9657L25.5936 99.5754L26.1965 97.6685L24.2682 97.0587L23.6652 98.9657ZM27.5219 100.185L29.4503 100.795L30.0532 98.888L28.1249 98.2782L27.5219 100.185ZM31.3786 101.405L33.307 102.014L33.91 100.108L31.9816 99.4977L31.3786 101.405ZM35.2353 102.624L37.1637 103.234L37.7667 101.327L35.8383 100.717L35.2353 102.624ZM39.092 103.844L41.0204 104.453L41.6234 102.547L39.695 101.937L39.092 103.844ZM42.9487 105.063L44.8771 105.673L45.4801 103.766L43.5517 103.156L42.9487 105.063ZM46.8054 106.283L48.7338 106.892L49.3368 104.986L47.4084 104.376L46.8054 106.283ZM50.6622 107.502L52.5905 108.112L53.1935 106.205L51.2651 105.595L50.6622 107.502ZM54.5189 108.722L56.4472 109.332L57.0502 107.425L55.1218 106.815L54.5189 108.722ZM58.3756 109.941L60.3039 110.551L60.9069 108.644L58.9785 108.034L58.3756 109.941ZM62.2323 111.161L64.1606 111.771L64.7636 109.864L62.8353 109.254L62.2323 111.161ZM66.089 112.38L68.0173 112.99L68.6203 111.083L66.692 110.473L66.089 112.38ZM69.9457 113.6L71.874 114.21L72.477 112.303L70.5487 111.693L69.9457 113.6ZM73.8024 114.819L75.7307 115.429L76.3337 113.522L74.4054 112.912L73.8024 114.819ZM77.6591 116.039L79.5874 116.649L80.1904 114.742L78.2621 114.132L77.6591 116.039ZM81.5158 117.258L83.4442 117.868L84.0471 115.961L82.1188 115.351L81.5158 117.258ZM85.3725 118.478L87.3009 119.088L87.9038 117.181L85.9755 116.571L85.3725 118.478ZM89.2292 119.697L91.1576 120.307L91.7605 118.4L89.8322 117.79L89.2292 119.697ZM93.0859 120.917L95.0143 121.527L95.6173 119.62L93.6889 119.01L93.0859 120.917ZM96.9426 122.136L98.871 122.746L99.474 120.839L97.5456 120.229L96.9426 122.136ZM100.799 123.356L102.728 123.966L103.331 122.059L101.402 121.449L100.799 123.356ZM104.656 124.575L106.584 125.185L107.187 123.278L105.259 122.668L104.656 124.575ZM108.513 125.795L110.441 126.405L111.044 124.498L109.116 123.888L108.513 125.795ZM112.369 127.014L114.298 127.624L114.901 125.717L112.972 125.107L112.369 127.014ZM116.226 128.234L118.155 128.844L118.757 126.937L116.829 126.327L116.226 128.234ZM120.083 129.453L122.011 130.063L122.614 128.156L120.686 127.547L120.083 129.453ZM123.94 130.673L125.868 131.283L126.471 129.376L124.543 128.766L123.94 130.673ZM127.796 131.892L129.725 132.502L130.328 130.595L128.399 129.986L127.796 131.892ZM131.653 133.112L133.581 133.722L134.184 131.815L132.256 131.205L131.653 133.112ZM135.51 134.331L137.438 134.941L138.041 133.034L136.113 132.425L135.51 134.331ZM139.366 135.551L141.295 136.161L141.898 134.254L139.969 133.644L139.366 135.551ZM143.223 136.771L145.151 137.38L145.754 135.473L143.826 134.864L143.223 136.771ZM147.08 137.99L149.008 138.6L149.611 136.693L147.683 136.083L147.08 137.99ZM150.937 139.21L152.865 139.819L153.468 137.912L151.54 137.303L150.937 139.21ZM154.793 140.429L156.722 141.039L157.325 139.132L155.396 138.522L154.793 140.429ZM158.65 141.649L159.614 141.953L160.217 140.047L159.253 139.742L158.65 141.649ZM160.217 141.953L161.181 141.649L160.578 139.742L159.614 140.047L160.217 141.953ZM163.11 141.039L165.038 140.429L164.435 138.522L162.507 139.132L163.11 141.039ZM166.966 139.819L168.895 139.21L168.292 137.303L166.363 137.912L166.966 139.819ZM170.823 138.6L172.751 137.99L172.148 136.083L170.22 136.693L170.823 138.6ZM174.68 137.38L176.608 136.771L176.005 134.864L174.077 135.473L174.68 137.38ZM178.537 136.161L180.465 135.551L179.862 133.644L177.934 134.254L178.537 136.161ZM182.393 134.941L184.322 134.332L183.719 132.425L181.79 133.034L182.393 134.941ZM186.25 133.722L188.178 133.112L187.575 131.205L185.647 131.815L186.25 133.722ZM190.107 132.502L192.035 131.893L191.432 129.986L189.504 130.595L190.107 132.502ZM193.963 131.283L195.892 130.673L195.289 128.766L193.36 129.376L193.963 131.283ZM197.82 130.063L199.748 129.453L199.145 127.547L197.217 128.156L197.82 130.063ZM201.677 128.844L203.605 128.234L203.002 126.327L201.074 126.937L201.677 128.844ZM205.533 127.624L207.462 127.014L206.859 125.108L204.93 125.717L205.533 127.624ZM209.39 126.405L211.319 125.795L210.716 123.888L208.787 124.498L209.39 126.405ZM213.247 125.185L215.175 124.575L214.572 122.668L212.644 123.278L213.247 125.185ZM217.104 123.966L219.032 123.356L218.429 121.449L216.501 122.059L217.104 123.966ZM220.96 122.746L222.889 122.136L222.286 120.229L220.357 120.839L220.96 122.746ZM224.817 121.527L226.745 120.917L226.142 119.01L224.214 119.62L224.817 121.527ZM228.674 120.307L230.602 119.697L229.999 117.79L228.071 118.4L228.674 120.307ZM232.53 119.088L234.459 118.478L233.856 116.571L231.927 117.181L232.53 119.088ZM236.387 117.868L238.315 117.258L237.712 115.351L235.784 115.961L236.387 117.868ZM240.244 116.649L242.172 116.039L241.569 114.132L239.641 114.742L240.244 116.649ZM244.101 115.429L246.029 114.819L245.426 112.912L243.498 113.522L244.101 115.429ZM247.957 114.21L249.886 113.6L249.283 111.693L247.354 112.303L247.957 114.21ZM251.814 112.99L253.742 112.38L253.139 110.473L251.211 111.083L251.814 112.99ZM255.671 111.771L257.599 111.161L256.996 109.254L255.068 109.864L255.671 111.771ZM259.527 110.551L261.456 109.941L260.853 108.034L258.924 108.644L259.527 110.551ZM263.384 109.332L265.312 108.722L264.709 106.815L262.781 107.425L263.384 109.332ZM267.241 108.112L269.169 107.502L268.566 105.595L266.638 106.205L267.241 108.112ZM271.097 106.893L273.026 106.283L272.423 104.376L270.494 104.986L271.097 106.893ZM274.954 105.673L276.883 105.063L276.28 103.156L274.351 103.766L274.954 105.673ZM278.811 104.453L280.739 103.844L280.136 101.937L278.208 102.547L278.811 104.453ZM282.668 103.234L284.596 102.624L283.993 100.717L282.065 101.327L282.668 103.234ZM286.524 102.014L288.453 101.405L287.85 99.4978L285.921 100.108L286.524 102.014ZM290.381 100.795L292.309 100.185L291.706 98.2783L289.778 98.888L290.381 100.795ZM294.238 99.5754L296.166 98.9657L295.563 97.0587L293.635 97.6685L294.238 99.5754ZM298.094 98.3559L300.023 97.7462L299.42 95.8392L297.491 96.449L298.094 98.3559ZM301.951 97.1364L303.879 96.5266L303.276 94.6197L301.348 95.2295L301.951 97.1364ZM305.808 95.9169L307.736 95.3071L307.133 93.4002L305.205 94.01L305.808 95.9169ZM309.665 94.6974L311.593 94.0876L310.99 92.1807L309.062 92.7904L309.665 94.6974ZM313.521 93.4779L315.45 92.8681L314.847 90.9612L312.918 91.5709L313.521 93.4779ZM317.378 92.2584L318.342 91.9535L317.739 90.0465L316.775 90.3514L317.378 92.2584ZM318.041 92H318.134V90H318.041V92ZM318.322 92H318.416V90H318.322V92ZM319.416 91V90.9704H317.416V91H319.416ZM319.416 90.9111V90.8814H317.416V90.9111H319.416ZM318.717 91.8349L318.821 91.802L318.218 89.8951L318.114 89.928L318.717 91.8349ZM319.029 91.7363L319.133 91.7035L318.53 89.7965L318.426 89.8294L319.029 91.7363ZM318.831 89.75H318.727V91.75H318.831V89.75ZM318.52 89.75H318.416V91.75H318.52V89.75ZM319.416 90.75V89.7301H317.416V90.75H319.416ZM319.416 87.6903V85.6506H317.416V87.6903H319.416ZM319.416 83.6108V81.571H317.416V83.6108H319.416ZM319.416 79.5312V77.4915H317.416V79.5312H319.416ZM319.416 75.4517V73.4119H317.416V75.4517H319.416ZM319.416 71.3722V69.3324H317.416V71.3722H319.416ZM319.416 67.2926V65.2528H317.416V67.2926H319.416ZM319.416 63.2131V61.1733H317.416V63.2131H319.416ZM319.416 59.1335V57.0938H317.416V59.1335H319.416ZM319.416 55.054V53.0142H317.416V55.054H319.416ZM319.416 50.9744V48.9347H317.416V50.9744H319.416ZM319.416 46.8949V44.8551H317.416V46.8949H319.416ZM319.416 42.8153V40.7756H317.416V42.8153H319.416ZM319.416 38.7358V36.696H317.416V38.7358H319.416ZM319.416 34.6563V32.6165H317.416V34.6563H319.416ZM319.416 30.5767V28.5369H317.416V30.5767H319.416ZM319.416 26.4972V24.4574H317.416V26.4972H319.416ZM319.416 22.4176V20.3779H317.416V22.4176H319.416ZM319.416 18.3381V16.2983H317.416V18.3381H319.416ZM319.416 14.2585V12.2188H317.416V14.2585H319.416ZM319.416 10.179V8.13922H317.416V10.179H319.416ZM319.416 6.09945V4.05968H317.416V6.09945H319.416ZM319.416 2.01991V1H317.416V2.01991H319.416ZM318.416 0H317.412V2H318.416V0ZM315.406 0H313.4V2H315.406V0ZM311.393 0H309.387V2H311.393V0ZM307.381 0H305.375V2H307.381V0ZM303.368 0H301.362V2H303.368V0ZM299.356 0H297.349V2H299.356V0ZM295.343 0H293.337V2H295.343V0ZM291.33 0H289.324V2H291.33V0ZM287.318 0H285.311V2H287.318V0ZM283.305 0H281.299V2H283.305V0ZM279.292 0H277.286V2H279.292V0ZM275.28 0H273.273V2H275.28V0ZM271.267 0H269.261V2H271.267V0ZM267.254 0H265.248V2H267.254V0ZM263.242 0H261.235V2H263.242V0ZM259.229 0H257.223V2H259.229V0ZM255.216 0H253.21V2H255.216V0ZM251.204 0H249.197V2H251.204V0ZM247.191 0H245.185V2H247.191V0ZM243.178 0H241.172V2H243.178V0ZM239.166 0H237.159V2H239.166V0ZM235.153 0H233.147V2H235.153V0ZM231.14 0H229.134V2H231.14V0ZM227.128 0H225.121V2H227.128V0ZM223.115 0H221.109V2H223.115V0ZM219.102 0H217.096V2H219.102V0ZM215.09 0H213.083V2H215.09V0ZM211.077 0H209.071V2H211.077V0ZM207.064 0H205.058V2H207.064V0ZM203.052 0H201.045V2H203.052V0ZM199.039 0H197.033V2H199.039V0ZM195.026 0H193.02V2H195.026V0ZM191.014 0H189.007V2H191.014V0ZM187.001 0H184.995V2H187.001V0ZM182.988 0H180.982V2H182.988V0ZM178.976 0H176.969V2H178.976V0ZM174.963 0H172.957V2H174.963V0ZM170.95 0H168.944V2H170.95V0ZM166.938 0H164.931V2H166.938V0ZM162.925 0H160.919V2H162.925V0ZM158.912 0H156.906V2H158.912V0ZM154.9 0H152.893V2H154.9V0ZM150.887 0H148.881V2H150.887V0ZM146.874 0H144.868V2H146.874V0ZM142.862 0H140.855V2H142.862V0ZM138.849 0H136.843V2H138.849V0ZM134.836 0H132.83V2H134.836V0ZM130.824 0H128.817V2H130.824V0ZM126.811 0H124.805V2H126.811V0ZM122.798 0H120.792V2H122.798V0ZM118.786 0H116.779V2H118.786V0ZM114.773 0H112.767V2H114.773V0ZM110.76 0H108.754V2H110.76V0ZM106.748 0H104.741V2H106.748V0ZM102.735 0H100.729V2H102.735V0ZM98.7224 0H96.7161V2H98.7224V0ZM94.7097 0H92.7034V2H94.7097V0ZM90.6971 0H88.6907V2H90.6971V0ZM86.6844 0H84.6781V2H86.6844V0ZM82.6717 0H80.6654V2H82.6717V0ZM78.6591 0H76.6527V2H78.6591V0ZM74.6464 0H72.6401V2H74.6464V0ZM70.6337 0H68.6274V2H70.6337V0ZM66.6211 0H64.6147V2H66.6211V0ZM62.6084 0H60.6021V2H62.6084V0ZM58.5958 0H56.5895V2H58.5958V0ZM54.5831 0H52.5768V2H54.5831V0ZM50.5705 0H48.5642V2H50.5705V0ZM46.5579 0H44.5516V2H46.5579V0ZM42.5452 0H40.5389V2H42.5452V0ZM38.5326 0H36.5263V2H38.5326V0ZM34.52 0H32.5136V2H34.52V0ZM30.5073 0H28.501V2H30.5073V0ZM26.4947 0H24.4884V2H26.4947V0ZM22.4821 0H20.4758V2H22.4821V0ZM18.4694 0H16.4631V2H18.4694V0ZM14.4568 0H12.4505V2H14.4568V0ZM10.4442 0H8.43785V2H10.4442V0ZM6.43154 0H4.42521V2H6.43154V0ZM2.4189 0H1.41566V2H2.4189V0Z" fill="#54595D" mask="url(#path-1-outside-1_14_15)"/>
</svg>
