<?xml version="1.0" encoding="UTF-8" standalone="no"?>
<svg
   height="2048"
   width="2048"
   version="1.1"
   id="svg1386"
   sodipodi:docname="end-event-none.svg"
   inkscape:version="1.2.2 (b0a8486541, 2022-12-01)"
   xmlns:inkscape="http://www.inkscape.org/namespaces/inkscape"
   xmlns:sodipodi="http://sodipodi.sourceforge.net/DTD/sodipodi-0.dtd"
   xmlns="http://www.w3.org/2000/svg"
   xmlns:svg="http://www.w3.org/2000/svg">
  <defs
     id="defs1390" />
  <sodipodi:namedview
     id="namedview1388"
     pagecolor="#ffffff"
     bordercolor="#666666"
     borderopacity="1.0"
     inkscape:showpageshadow="2"
     inkscape:pageopacity="0.0"
     inkscape:pagecheckerboard="0"
     inkscape:deskcolor="#d1d1d1"
     showgrid="false"
     inkscape:zoom="0.36279297"
     inkscape:cx="1024"
     inkscape:cy="1024"
     inkscape:window-width="1920"
     inkscape:window-height="1008"
     inkscape:window-x="0"
     inkscape:window-y="0"
     inkscape:window-maximized="1"
     inkscape:current-layer="svg1386" />
  <path
     d="m9.9192384 1032.7309c-4.2978937-.032-8.3299308 3.2262-9.2342206 7.4235-.87217511 3.6869.6894335 7.7995 3.8170658 9.9489 3.0357909 2.1743 7.3623574 2.3447 10.5202574.3253 3.175346-1.9445 5.045219-5.8275 4.452721-9.5224-.542558-3.8302-3.602196-7.1614-7.401634-7.9487-.706394-.1576-1.430602-.2314-2.1541896-.2266zm.2282106 2.9961c3.158138-.01 6.059137 2.6037 6.381032 5.7478.410891 3.0052-1.526597 6.1488-4.439527 7.0523-2.8430822.9675-6.2713643-.2672-7.7524839-2.9044-1.6388618-2.7361-.941568-6.6351 1.6554017-8.5347 1.1777062-.9087 2.668674-1.3952 4.1555772-1.361z"
     transform="matrix(96.752895 0 0 96.752895 55.328158 -99820.70216999998)"
     id="path1384"
     style="fill:#2b80ea;fill-opacity:1" />
</svg>
