<?xml version="1.0" encoding="UTF-8" standalone="no"?>
<svg
   height="2048"
   width="2048"
   version="1.1"
   id="svg4"
   sodipodi:docname="task.svg"
   inkscape:version="1.2.2 (b0a8486541, 2022-12-01)"
   xmlns:inkscape="http://www.inkscape.org/namespaces/inkscape"
   xmlns:sodipodi="http://sodipodi.sourceforge.net/DTD/sodipodi-0.dtd"
   xmlns="http://www.w3.org/2000/svg"
   xmlns:svg="http://www.w3.org/2000/svg">
  <defs
     id="defs8" />
  <sodipodi:namedview
     id="namedview6"
     pagecolor="#ffffff"
     bordercolor="#666666"
     borderopacity="1.0"
     inkscape:showpageshadow="2"
     inkscape:pageopacity="0.0"
     inkscape:pagecheckerboard="0"
     inkscape:deskcolor="#d1d1d1"
     showgrid="false"
     inkscape:zoom="0.36279297"
     inkscape:cx="1024"
     inkscape:cy="1024"
     inkscape:window-width="1920"
     inkscape:window-height="1008"
     inkscape:window-x="0"
     inkscape:window-y="0"
     inkscape:window-maximized="1"
     inkscape:current-layer="svg4" />
  <path
     d="m3.9882812 1034.5352c-1.8058997 0-3.27539058 1.4694-3.27539058 3.2753v8.961c0 1.8059 1.46949088 3.2754 3.27539058 3.2754h12.0468748c1.8059 0 3.275391-1.4695 3.275391-3.2754v-8.961c0-1.8059-1.469491-3.2753-3.275391-3.2753zm0 1.0332h12.0468748c1.251185 0 2.242188.991 2.242188 2.2421v8.961c0 1.2512-.991003 2.2422-2.242188 2.2422h-12.0468748c-1.2511848 0-2.2421874-.991-2.2421874-2.2422v-8.961c0-1.2511.9910026-2.2421 2.2421874-2.2421z"
     transform="matrix(96.752895 0 0 96.752895 55.328158 -99820.70216999998)"
     id="path2"
     style="fill:#94c11f;fill-opacity:1" />
</svg>
